{"accessors" : [{"bufferView" : 0, "byteOffset" : 0, "componentType" : 5123, "count" : 31500, "type" : "SCALAR", "max" : [25980], "min" : [0]}, {"bufferView" : 1, "byteOffset" : 0, "componentType" : 5126, "count" : 25981, "type" : "VEC3", "max" : [0.07023078948259354, 0.19042634963989258, 0.07151128351688385], "min" : [-0.06938816606998444, -0.21444541215896606, -0.07243558019399643], "name" : "POSITION"}, {"bufferView" : 1, "byteOffset" : 12, "componentType" : 5126, "count" : 25981, "type" : "VEC3", "max" : [0.9999048709869385, 0.9999260306358337, 1.0000011920928955], "min" : [-0.9999860525131226, -0.9977439045906067, -0.9999598264694214], "name" : "NORMAL"}, {"bufferView" : 1, "byteOffset" : 24, "componentType" : 5126, "count" : 25981, "type" : "VEC2", "max" : [0.9900436401367188, -0.00010818802547873929], "min" : [5.3589224989991635E-05, -0.9996379613876343], "name" : "TEXCOORD_0"}], "asset" : {"generator" : "Aspose.3D 22.7", "version" : "2.0"}, "buffers" : [{"uri" : "data:application/octet-stream;base64,", "byteLength" : 1071008}], "bufferViews" : [{"buffer" : 0, "byteOffset" : 0, "byteLength" : 63000, "target" : 34963}, {"buffer" : 0, "byteOffset" : 63004, "byteLength" : 1008000, "byteStride" : 32, "target" : 34962}], "images" : [{"uri" : "data:image/png;base64,"}], "materials" : [{"name" : "g0", "pbrMetallicRoughness" : {"baseColorFactor" : [1, 1, 1, 1], "baseColorTexture" : {"index" : 0, "texCoord" : 0}, "metallicFactor" : 0, "roughnessFactor" : 0.8999999761581421}, "emissiveFactor" : [0, 0, 0], "alphaMode" : "OPAQUE", "doubleSided" : false}], "meshes" : [{"primitives" : [{"attributes" : {"POSITION" : 1, "NORMAL" : 2, "TEXCOORD_0" : 3}, "indices" : 0, "material" : 0, "mode" : 4}], "name" : "g0"}], "nodes" : [{"mesh" : 0, "name" : "baked_mesh"}], "samplers" : [{"magFilter" : 9729, "minFilter" : 9729, "wrapS" : 10497, "wrapT" : 10497}], "scene" : 0, "scenes" : [{"nodes" : [0]}], "textures" : [{"sampler" : 0, "source" : 0, "name" : "diffuseColor_texture"}]}