{"accessors" : [{"bufferView" : 0, "byteOffset" : 0, "componentType" : 5123, "count" : 32085, "type" : "SCALAR", "max" : [26521], "min" : [0]}, {"bufferView" : 1, "byteOffset" : 0, "componentType" : 5126, "count" : 26522, "type" : "VEC3", "max" : [0.0693567767739296, 0.1907520741224289, 0.07067018002271652], "min" : [-0.06996279209852219, -0.202545166015625, -0.06930051743984222], "name" : "POSITION"}, {"bufferView" : 1, "byteOffset" : 12, "componentType" : 5126, "count" : 26522, "type" : "VEC3", "max" : [0.9999774098396301, 0.9998830556869507, 1.0000007152557373], "min" : [-0.9999979138374329, -0.9997653365135193, -0.9999045133590698], "name" : "NORMAL"}, {"bufferView" : 1, "byteOffset" : 24, "componentType" : 5126, "count" : 26522, "type" : "VEC2", "max" : [0.9911627769470215, -0.00031665340065956116], "min" : [0.00037148428964428604, -0.9999423623085022], "name" : "TEXCOORD_0"}], "asset" : {"generator" : "Aspose.3D 22.7", "version" : "2.0"}, "buffers" : [{"uri" : "data:application/octet-stream;base64,", "byteLength" : 1090900}], "bufferViews" : [{"buffer" : 0, "byteOffset" : 0, "byteLength" : 64172, "target" : 34963}, {"buffer" : 0, "byteOffset" : 64176, "byteLength" : 1026720, "byteStride" : 32, "target" : 34962}], "images" : [{"uri" : "data:image/png;base64,"}], "materials" : [{"name" : "g0", "pbrMetallicRoughness" : {"baseColorFactor" : [1, 1, 1, 1], "baseColorTexture" : {"index" : 0, "texCoord" : 0}, "metallicFactor" : 0, "roughnessFactor" : 0.8999999761581421}, "emissiveFactor" : [0, 0, 0], "alphaMode" : "OPAQUE", "doubleSided" : false}], "meshes" : [{"primitives" : [{"attributes" : {"POSITION" : 1, "NORMAL" : 2, "TEXCOORD_0" : 3}, "indices" : 0, "material" : 0, "mode" : 4}], "name" : "g0"}], "nodes" : [{"mesh" : 0, "name" : "baked_mesh"}], "samplers" : [{"magFilter" : 9729, "minFilter" : 9729, "wrapS" : 10497, "wrapT" : 10497}], "scene" : 0, "scenes" : [{"nodes" : [0]}], "textures" : [{"sampler" : 0, "source" : 0, "name" : "diffuseColor_texture"}]}