{"accessors" : [{"bufferView" : 0, "byteOffset" : 0, "componentType" : 5123, "count" : 24213, "type" : "SCALAR", "max" : [19980], "min" : [0]}, {"bufferView" : 1, "byteOffset" : 0, "componentType" : 5126, "count" : 19981, "type" : "VEC3", "max" : [0.09775593131780624, 0.2516210675239563, 0.09502331167459488], "min" : [-0.09119503200054169, -0.26411572098731995, -0.09161944687366486], "name" : "POSITION"}, {"bufferView" : 1, "byteOffset" : 12, "componentType" : 5126, "count" : 19981, "type" : "VEC3", "max" : [0.9998959302902222, 0.9999975562095642, 0.9997828602790833], "min" : [-0.9999179840087891, -0.9996528029441833, -0.9995931386947632], "name" : "NORMAL"}, {"bufferView" : 1, "byteOffset" : 24, "componentType" : 5126, "count" : 19981, "type" : "VEC2", "max" : [0.9996998310089111, -0.0004521223600022495], "min" : [0.00020403527014423162, -0.9918079376220703], "name" : "TEXCOORD_0"}], "asset" : {"generator" : "Aspose.3D 22.7", "version" : "2.0"}, "buffers" : [{"uri" : "data:application/octet-stream;base64,", "byteLength" : 823252}], "bufferViews" : [{"buffer" : 0, "byteOffset" : 0, "byteLength" : 48428, "target" : 34963}, {"buffer" : 0, "byteOffset" : 48432, "byteLength" : 774816, "byteStride" : 32, "target" : 34962}], "images" : [{"uri" : "data:image/png;base64,"}], "materials" : [{"name" : "g0", "pbrMetallicRoughness" : {"baseColorFactor" : [1, 1, 1, 1], "baseColorTexture" : {"index" : 0, "texCoord" : 0}, "metallicFactor" : 0, "roughnessFactor" : 0.8999999761581421}, "emissiveFactor" : [0, 0, 0], "alphaMode" : "OPAQUE", "doubleSided" : false}], "meshes" : [{"primitives" : [{"attributes" : {"POSITION" : 1, "NORMAL" : 2, "TEXCOORD_0" : 3}, "indices" : 0, "material" : 0, "mode" : 4}], "name" : "g0"}], "nodes" : [{"mesh" : 0, "name" : "baked_mesh"}], "samplers" : [{"magFilter" : 9729, "minFilter" : 9729, "wrapS" : 10497, "wrapT" : 10497}], "scene" : 0, "scenes" : [{"nodes" : [0]}], "textures" : [{"sampler" : 0, "source" : 0, "name" : "diffuseColor_texture"}]}