{"accessors" : [{"bufferView" : 0, "byteOffset" : 0, "componentType" : 5123, "count" : 32808, "type" : "SCALAR", "max" : [27173], "min" : [0]}, {"bufferView" : 1, "byteOffset" : 0, "componentType" : 5126, "count" : 27174, "type" : "VEC3", "max" : [0.10467564314603806, 0.053070515394210815, 0.07027067244052887], "min" : [-0.10696126520633698, -0.06076115742325783, -0.072194904088974], "name" : "POSITION"}, {"bufferView" : 1, "byteOffset" : 12, "componentType" : 5126, "count" : 27174, "type" : "VEC3", "max" : [0.9981997609138489, 0.9999223351478577, 0.9999068379402161], "min" : [-0.9989206194877625, -0.9979514479637146, -0.9983396530151367], "name" : "NORMAL"}, {"bufferView" : 1, "byteOffset" : 24, "componentType" : 5126, "count" : 27174, "type" : "VEC2", "max" : [0.9862650632858276, -0.00012807262828573585], "min" : [0.00011249569797655568, -0.9996686577796936], "name" : "TEXCOORD_0"}], "asset" : {"generator" : "Aspose.3D 22.7", "version" : "2.0"}, "buffers" : [{"uri" : "data:application/octet-stream;base64,", "byteLength" : 1115480}], "bufferViews" : [{"buffer" : 0, "byteOffset" : 0, "byteLength" : 65616, "target" : 34963}, {"buffer" : 0, "byteOffset" : 65620, "byteLength" : 1049856, "byteStride" : 32, "target" : 34962}], "images" : [{"uri" : "data:image/png;base64,"}], "materials" : [{"name" : "g0", "pbrMetallicRoughness" : {"baseColorFactor" : [1, 1, 1, 1], "baseColorTexture" : {"index" : 0, "texCoord" : 0}, "metallicFactor" : 0, "roughnessFactor" : 0.8999999761581421}, "emissiveFactor" : [0, 0, 0], "alphaMode" : "OPAQUE", "doubleSided" : false}], "meshes" : [{"primitives" : [{"attributes" : {"POSITION" : 1, "NORMAL" : 2, "TEXCOORD_0" : 3}, "indices" : 0, "material" : 0, "mode" : 4}], "name" : "g0"}], "nodes" : [{"mesh" : 0, "name" : "baked_mesh"}], "samplers" : [{"magFilter" : 9729, "minFilter" : 9729, "wrapS" : 10497, "wrapT" : 10497}], "scene" : 0, "scenes" : [{"nodes" : [0]}], "textures" : [{"sampler" : 0, "source" : 0, "name" : "diffuseColor_texture"}]}