{"accessors" : [{"bufferView" : 0, "byteOffset" : 0, "componentType" : 5123, "count" : 41124, "type" : "SCALAR", "max" : [33948], "min" : [0]}, {"bufferView" : 1, "byteOffset" : 0, "componentType" : 5126, "count" : 33949, "type" : "VEC3", "max" : [0.1204201728105545, 0.2817026376724243, 0.07516895979642868], "min" : [-0.12349001318216324, -0.2932564914226532, -0.03218069300055504], "name" : "POSITION"}, {"bufferView" : 1, "byteOffset" : 12, "componentType" : 5126, "count" : 33949, "type" : "VEC3", "max" : [0.9998898506164551, 0.999833345413208, 1.0000020265579224], "min" : [-0.9998792409896851, -0.9991695284843445, -0.9999964833259583], "name" : "NORMAL"}, {"bufferView" : 1, "byteOffset" : 24, "componentType" : 5126, "count" : 33949, "type" : "VEC2", "max" : [0.9998980760574341, -0.00021400887635536492], "min" : [0.0003074981505051255, -0.9843604564666748], "name" : "TEXCOORD_0"}], "asset" : {"generator" : "Aspose.3D 22.7", "version" : "2.0"}, "buffers" : [{"uri" : "data:application/octet-stream;base64,", "byteLength" : 1398224}], "bufferViews" : [{"buffer" : 0, "byteOffset" : 0, "byteLength" : 82248, "target" : 34963}, {"buffer" : 0, "byteOffset" : 82252, "byteLength" : 1315968, "byteStride" : 32, "target" : 34962}], "images" : [{"uri" : "data:image/png;base64,"}], "materials" : [{"name" : "g0", "pbrMetallicRoughness" : {"baseColorFactor" : [1, 1, 1, 1], "baseColorTexture" : {"index" : 0, "texCoord" : 0}, "metallicFactor" : 0, "roughnessFactor" : 0.8999999761581421}, "emissiveFactor" : [0, 0, 0], "alphaMode" : "OPAQUE", "doubleSided" : false}], "meshes" : [{"primitives" : [{"attributes" : {"POSITION" : 1, "NORMAL" : 2, "TEXCOORD_0" : 3}, "indices" : 0, "material" : 0, "mode" : 4}], "name" : "g0"}], "nodes" : [{"mesh" : 0, "name" : "baked_mesh"}], "samplers" : [{"magFilter" : 9729, "minFilter" : 9729, "wrapS" : 10497, "wrapT" : 10497}], "scene" : 0, "scenes" : [{"nodes" : [0]}], "textures" : [{"sampler" : 0, "source" : 0, "name" : "diffuseColor_texture"}]}