{"accessors" : [{"bufferView" : 0, "byteOffset" : 0, "componentType" : 5123, "count" : 19728, "type" : "SCALAR", "max" : [16292], "min" : [0]}, {"bufferView" : 1, "byteOffset" : 0, "componentType" : 5126, "count" : 16293, "type" : "VEC3", "max" : [0.10798455029726028, 0.08374787122011185, 0.05038922280073166], "min" : [-0.10987647622823715, -0.07611894607543945, -0.05368467792868614], "name" : "POSITION"}, {"bufferView" : 1, "byteOffset" : 12, "componentType" : 5126, "count" : 16293, "type" : "VEC3", "max" : [0.9999028444290161, 0.9999853372573853, 0.9999933242797852], "min" : [-0.9999781250953674, -0.999424159526825, -0.9997714757919312], "name" : "NORMAL"}, {"bufferView" : 1, "byteOffset" : 24, "componentType" : 5126, "count" : 16293, "type" : "VEC2", "max" : [0.991432249546051, -0.0002035729994531721], "min" : [0.000376966898329556, -0.9995768666267395], "name" : "TEXCOORD_0"}], "asset" : {"generator" : "Aspose.3D 22.7", "version" : "2.0"}, "buffers" : [{"uri" : "data:application/octet-stream;base64,", "byteLength" : 670760}], "bufferViews" : [{"buffer" : 0, "byteOffset" : 0, "byteLength" : 39456, "target" : 34963}, {"buffer" : 0, "byteOffset" : 39460, "byteLength" : 631296, "byteStride" : 32, "target" : 34962}], "images" : [{"uri" : "data:image/png;base64,"}], "materials" : [{"name" : "g0", "pbrMetallicRoughness" : {"baseColorFactor" : [1, 1, 1, 1], "baseColorTexture" : {"index" : 0, "texCoord" : 0}, "metallicFactor" : 0, "roughnessFactor" : 0.8999999761581421}, "emissiveFactor" : [0, 0, 0], "alphaMode" : "OPAQUE", "doubleSided" : false}], "meshes" : [{"primitives" : [{"attributes" : {"POSITION" : 1, "NORMAL" : 2, "TEXCOORD_0" : 3}, "indices" : 0, "material" : 0, "mode" : 4}], "name" : "g0"}], "nodes" : [{"mesh" : 0, "name" : "baked_mesh"}], "samplers" : [{"magFilter" : 9729, "minFilter" : 9729, "wrapS" : 10497, "wrapT" : 10497}], "scene" : 0, "scenes" : [{"nodes" : [0]}], "textures" : [{"sampler" : 0, "source" : 0, "name" : "diffuseColor_texture"}]}