{"accessors" : [{"bufferView" : 0, "byteOffset" : 0, "componentType" : 5123, "count" : 17439, "type" : "SCALAR", "max" : [14480], "min" : [0]}, {"bufferView" : 1, "byteOffset" : 0, "componentType" : 5126, "count" : 14481, "type" : "VEC3", "max" : [0.12499162554740906, 0.04355821758508682, 0.09778253734111786], "min" : [-0.12660306692123413, -0.06582848727703094, -0.09369944036006927], "name" : "POSITION"}, {"bufferView" : 1, "byteOffset" : 12, "componentType" : 5126, "count" : 14481, "type" : "VEC3", "max" : [0.9855961799621582, 0.9999920725822449, 0.9272648096084595], "min" : [-0.9977598786354065, -0.9957448244094849, -0.9876726865768433], "name" : "NORMAL"}, {"bufferView" : 1, "byteOffset" : 24, "componentType" : 5126, "count" : 14481, "type" : "VEC2", "max" : [0.9977965354919434, -0.0003323692362755537], "min" : [0.0009953237604349852, -0.9992954134941101], "name" : "TEXCOORD_0"}], "asset" : {"generator" : "Aspose.3D 22.7", "version" : "2.0"}, "buffers" : [{"uri" : "data:application/octet-stream;base64,", "byteLength" : 592936}], "bufferViews" : [{"buffer" : 0, "byteOffset" : 0, "byteLength" : 34880, "target" : 34963}, {"buffer" : 0, "byteOffset" : 34884, "byteLength" : 558048, "byteStride" : 32, "target" : 34962}], "images" : [{"uri" : "data:image/png;base64,"}], "materials" : [{"name" : "g0", "pbrMetallicRoughness" : {"baseColorFactor" : [1, 1, 1, 1], "baseColorTexture" : {"index" : 0, "texCoord" : 0}, "metallicFactor" : 0, "roughnessFactor" : 0.8999999761581421}, "emissiveFactor" : [0, 0, 0], "alphaMode" : "OPAQUE", "doubleSided" : false}], "meshes" : [{"primitives" : [{"attributes" : {"POSITION" : 1, "NORMAL" : 2, "TEXCOORD_0" : 3}, "indices" : 0, "material" : 0, "mode" : 4}], "name" : "g0"}], "nodes" : [{"mesh" : 0, "name" : "baked_mesh"}], "samplers" : [{"magFilter" : 9729, "minFilter" : 9729, "wrapS" : 10497, "wrapT" : 10497}], "scene" : 0, "scenes" : [{"nodes" : [0]}], "textures" : [{"sampler" : 0, "source" : 0, "name" : "diffuseColor_texture"}]}